<?xml version="1.0" standalone="no"?>
<!DOCTYPE svg PUBLIC "-//W3C//DTD SVG 1.1//EN" "http://www.w3.org/Graphics/SVG/1.1/DTD/svg11.dtd">
<!--Generator: Xara Designer (www.xara.com), SVG filter version: 6.0.0.4-->
<svg stroke-width="0.501" stroke-linejoin="bevel" fill-rule="evenodd" xmlns:xlink="http://www.w3.org/1999/xlink" xmlns="http://www.w3.org/2000/svg" version="1.1" overflow="visible" width="85.5pt" height="36pt" viewBox="0 0 85.5 36">
 <defs>
	</defs>
 <g id="Document" fill="none" stroke="black" font-family="Times New Roman" font-size="16" transform="scale(1 -1)">
  <g id="Spread" transform="translate(0 -36)">
   <g id="Layer 1">
    <g id="Group" stroke-linejoin="miter">
     <g id="Group_1">
      <path d="M 1.779,34.936 L 1.779,4.752 L 32.009,4.752 L 32.009,34.936 L 1.779,34.936" stroke-width="0.5" fill="#ffffff" stroke="#ffffff" stroke-miterlimit="79.8403193612775"/>
      <path d="M 43.146,21.482 C 39.481,21.482 37.012,24.305 37.012,28.481 C 37.012,32.636 39.52,35.517 43.246,35.517 C 44.774,35.517 46.026,35.066 47.047,34.361 L 46.832,32.988 C 45.774,33.753 44.597,34.302 43.226,34.302 C 40.246,34.302 38.403,31.949 38.403,28.519 C 38.403,25.05 40.266,22.717 43.205,22.717 C 44.656,22.717 45.969,23.285 47.067,24.129 L 47.264,22.835 C 46.243,22.07 44.754,21.482 43.146,21.482 Z" stroke-width="0.505" fill="#817a67" stroke="none" marker-start="none" marker-end="none" stroke-miterlimit="79.8403193612775"/>
      <path d="M 50.214,33.224 C 49.705,33.224 49.275,33.655 49.275,34.165 C 49.275,34.673 49.705,35.106 50.214,35.106 C 50.725,35.106 51.138,34.673 51.138,34.165 C 51.138,33.655 50.725,33.224 50.214,33.224 M 49.568,21.737 L 49.568,31.008 L 50.843,31.008 L 50.843,21.737 L 49.568,21.737 Z" stroke-width="0.505" fill="#817a67" stroke="none" marker-start="none" marker-end="none" stroke-miterlimit="79.8403193612775"/>
      <path d="M 57.031,21.581 C 55.581,21.581 54.621,22.149 54.621,23.854 L 54.621,29.911 L 53.19,29.911 L 53.19,31.008 L 54.621,31.008 L 54.621,34.223 L 55.895,34.439 L 55.895,31.008 L 58.032,31.008 L 58.208,29.911 L 55.895,29.911 L 55.895,24.07 C 55.895,23.129 56.268,22.717 57.267,22.717 C 57.561,22.717 57.914,22.776 58.129,22.815 L 58.324,21.737 C 58.052,21.659 57.581,21.581 57.031,21.581 Z" stroke-width="0.505" fill="#817a67" stroke="none" marker-start="none" marker-end="none" stroke-miterlimit="79.8403193612775"/>
      <path d="M 63.671,20.58 C 63.006,18.777 62.182,18.209 60.809,18.209 C 60.613,18.209 60.436,18.249 60.299,18.268 L 60.124,19.405 C 60.319,19.366 60.595,19.327 60.887,19.327 C 61.652,19.327 62.102,19.659 62.456,20.561 L 62.888,21.679 L 59.378,30.891 L 60.633,31.126 L 63.515,23.226 L 66.259,31.008 L 67.592,31.008 L 63.671,20.58 Z" stroke-width="0.505" fill="#817a67" stroke="none" marker-start="none" marker-end="none" stroke-miterlimit="79.8403193612775"/>
      <path d="M 71.476,28.832 C 69.611,28.832 68.355,27.378 68.355,25.213 C 68.355,23.057 69.611,21.608 71.476,21.608 C 73.37,21.608 74.64,23.057 74.64,25.213 C 74.64,27.378 73.37,28.832 71.476,28.832 M 71.476,22.618 C 70.291,22.618 69.522,23.637 69.522,25.213 C 69.522,26.822 70.27,27.822 71.476,27.822 C 72.682,27.822 73.461,26.799 73.461,25.213 C 73.461,23.588 72.72,22.618 71.476,22.618 Z" stroke-width="0.505" fill="#817a67" stroke="none" marker-start="none" marker-end="none" stroke-miterlimit="79.8403193612775"/>
      <path d="M 76.234,30.218 C 76.234,30.218 76.234,28.877 76.234,28.69 C 76.062,28.69 75.21,28.69 75.21,28.69 L 75.21,27.68 C 75.21,27.68 76.062,27.68 76.234,27.68 C 76.234,27.475 76.234,21.75 76.234,21.75 L 77.37,21.75 L 77.37,27.68 L 78.966,27.68 L 78.803,28.69 L 77.37,28.69 L 77.37,30.147 C 77.37,30.782 77.654,31.065 78.288,31.065 C 78.288,31.065 78.37,31.072 78.97,31.015 L 78.707,32.09 C 78.422,32.123 78.231,32.131 78.231,32.131 C 76.943,32.131 76.234,31.453 76.234,30.218 Z" stroke-width="0.505" fill="#817a67" stroke="none" marker-start="none" marker-end="none" stroke-miterlimit="79.8403193612775"/>
      <path d="M 46.478,4.756 L 46.478,11.224 L 38.972,11.224 L 38.972,4.756 L 37.62,4.756 L 37.62,18.282 L 38.972,18.282 L 38.972,12.441 L 46.478,12.441 L 46.478,18.282 L 47.832,18.282 L 47.832,4.756 L 46.478,4.756 Z" stroke-width="0.505" fill="#817a67" stroke="none" marker-start="none" marker-end="none" stroke-miterlimit="79.8403193612775"/>
      <path d="M 54.731,4.56 C 52.36,4.56 50.576,6.324 50.576,9.383 C 50.576,12.461 52.399,14.224 54.731,14.224 C 57.142,14.224 58.946,12.461 58.946,9.383 C 58.946,6.324 57.102,4.56 54.731,4.56 M 54.731,13.125 C 52.887,13.125 51.889,11.578 51.889,9.383 C 51.889,7.245 52.908,5.657 54.731,5.657 C 56.612,5.657 57.613,7.187 57.613,9.383 C 57.613,11.519 56.593,13.125 54.731,13.125 Z" stroke-width="0.505" fill="#817a67" stroke="none" marker-start="none" marker-end="none" stroke-miterlimit="79.8403193612775"/>
      <path d="M 65.1,4.638 C 64.179,4.638 63.356,4.816 62.689,5.09 L 62.689,1.385 L 61.396,1.169 L 61.396,14.028 L 62.395,14.028 L 62.611,12.695 C 63.337,13.518 64.257,14.224 65.609,14.224 C 67.628,14.224 69.335,12.753 69.335,9.656 C 69.335,6.265 67.354,4.638 65.1,4.638 M 65.473,13.066 C 64.375,13.066 63.532,12.42 62.689,11.401 L 62.689,6.283 C 63.413,5.932 64.101,5.736 65.061,5.736 C 66.728,5.736 68.02,7.01 68.02,9.597 C 68.02,11.853 66.942,13.066 65.473,13.066 Z" stroke-width="0.505" fill="#817a67" stroke="none" marker-start="none" marker-end="none" stroke-miterlimit="79.8403193612775"/>
      <path d="M 78.979,9.303 L 72.529,9.303 C 72.569,7.03 73.627,5.677 75.489,5.677 C 76.724,5.677 77.801,6.225 78.762,7.049 L 78.957,5.873 C 78.036,5.09 76.842,4.56 75.411,4.56 C 72.98,4.56 71.235,6.206 71.235,9.401 C 71.235,12.382 72.961,14.224 75.234,14.224 C 77.762,14.224 78.979,12.147 78.979,9.577 C 78.979,9.499 78.979,9.401 78.979,9.303 M 75.234,13.185 C 73.785,13.185 72.843,12.107 72.588,10.323 L 77.646,10.323 C 77.506,11.99 76.724,13.185 75.234,13.185 Z" stroke-width="0.505" fill="#817a67" stroke="none" marker-start="none" marker-end="none" stroke-miterlimit="79.8403193612775"/>
      <path d="M 20.03,21.671 C 20.012,22.765 20.032,23.805 20.107,24.746 C 20.199,26.067 20.317,27.016 20.573,27.716 C 19.082,29.136 17.788,30.596 16.83,31.75 C 15.845,30.634 14.537,29.229 13.069,27.83 C 13.325,27.129 13.553,26.067 13.644,24.746 C 13.678,24.325 13.701,23.886 13.713,23.432 C 14.69,22.641 15.897,21.786 16.897,21.478 C 17.785,21.332 18.96,21.466 20.03,21.671 M 16.521,23.306 C 16.521,23.832 16.947,24.258 17.473,24.258 C 17.997,24.258 18.423,23.832 18.423,23.306 C 18.423,22.781 17.997,22.357 17.473,22.357 C 16.947,22.357 16.521,22.781 16.521,23.306 M 17.401,20.132 C 17.217,19.297 17.16,18.148 17.366,16.584 C 17.789,13.364 20.257,10.097 21.358,8.779 C 20.865,11.73 20.174,16.725 20.044,21.047 C 19.249,20.733 18.344,20.407 17.401,20.132 M 1.5,35.249 L 1.5,4.499 L 32.249,4.499 L 32.249,35.249 L 1.5,35.249 M 23.195,32.975 C 23.956,32.975 24.569,32.359 24.569,31.601 C 24.569,30.841 23.956,30.226 23.195,30.226 C 22.436,30.226 21.82,30.841 21.82,31.601 C 21.82,32.359 22.436,32.975 23.195,32.975 M 10.556,32.975 C 11.315,32.975 11.93,32.359 11.93,31.601 C 11.93,30.841 11.315,30.226 10.556,30.226 C 9.797,30.226 9.181,30.841 9.181,31.601 C 9.181,32.359 9.797,32.975 10.556,32.975 M 30.871,30.093 C 30.131,29.716 27.159,27.828 23.092,27.014 C 22.826,25.808 22.744,24.145 23.041,21.886 C 23.824,15.94 29.566,9.698 29.715,9.546 C 29.78,9.478 29.715,9.366 29.642,9.416 C 29.171,9.747 24.844,12.684 22.118,17.561 C 21.653,12.917 21.958,6.587 21.986,6.35 C 22.004,6.201 21.854,6.231 21.836,6.297 C 21.769,6.532 21.621,7.261 21.437,8.319 C 20.529,8.987 18.288,10.797 16.727,13.59 C 16.405,10.378 16.643,6.011 16.663,5.847 C 16.674,5.744 16.543,5.749 16.53,5.794 C 16.322,6.528 14.987,14.14 15.333,18.564 C 15.398,19.477 15.556,20.212 15.734,20.697 C 14.99,21.405 14.306,22.116 13.725,22.749 C 13.783,16.296 12.186,7.252 11.915,6.297 C 11.897,6.231 11.748,6.201 11.766,6.35 C 11.793,6.587 12.097,12.917 11.633,17.561 C 8.907,12.684 4.579,9.747 4.11,9.416 C 4.037,9.366 3.97,9.478 4.037,9.546 C 4.185,9.698 9.928,15.94 10.709,21.886 C 11.007,24.145 10.924,25.808 10.659,27.014 C 6.947,28.1 3.619,29.716 2.881,30.093 C 2.802,30.128 2.823,30.261 2.952,30.229 C 3.77,29.977 8.574,28.492 11.387,28.959 C 13.002,29.455 14.994,30.941 16.474,32.182 C 15.822,32.981 15.367,33.586 15.173,33.845 C 15.105,33.926 15.194,34.037 15.276,33.957 C 15.512,33.743 16.094,33.186 16.863,32.511 C 17.644,33.184 18.237,33.74 18.476,33.957 C 18.558,34.037 18.646,33.926 18.578,33.845 C 18.382,33.583 17.905,32.989 17.221,32.2 C 18.704,30.93 20.719,29.386 22.356,28.882 C 25.168,28.418 29.981,29.977 30.8,30.229 C 30.93,30.261 30.948,30.128 30.871,30.093 Z" stroke-width="0.509" fill="#0075bc" stroke="none" marker-start="none" marker-end="none" stroke-miterlimit="79.8403193612775"/>
      <path d="M 81.423,6.525 L 81.423,4.756 L 81.146,4.756 L 81.146,6.525 L 80.507,6.525 L 80.507,6.778 L 82.02,6.778 L 82.06,6.525 L 81.423,6.525 M 84.323,4.756 L 84.206,6.309 L 83.578,4.749 L 83.356,4.749 L 82.734,6.309 L 82.611,4.756 L 82.349,4.756 L 82.501,6.778 L 82.829,6.778 L 83.473,5.119 L 84.119,6.778 L 84.44,6.778 L 84.599,4.756 L 84.323,4.756 Z" stroke-width="0.505" fill="#817a67" stroke="none" marker-start="none" marker-end="none" stroke-miterlimit="79.8403193612775"/>
     </g>
    </g>
   </g>
  </g>
 </g>
</svg>
